<svg width="2187" height="91" viewBox="0 0 2187 91" fill="none" xmlns="http://www.w3.org/2000/svg">
<g clip-path="url(#clip0_1176_4574)">
<path d="M2186.04 0H0V90.78H2186.04V0Z" fill="#151515"/>
<path d="M178.62 28.7202H157.91H157.86L155.23 31.8002H163.95L158.9 45.6702H165.95L170.42 33.4002L167.48 31.8002H175.89L178.62 28.7202Z" fill="white"/>
<path d="M156.35 28.7202H135.6L132.87 31.8002H134.47L129.42 45.6802H136.47L139.28 37.9602H142.39L144.03 45.6702H151.08L149.44 37.9602H152.97L156.34 28.7302L156.35 28.7202ZM140.41 34.8702L140.94 33.4002L138 31.8002H148.16L147.04 34.8702H140.4H140.41Z" fill="white"/>
<path d="M111.95 28.7202L109.22 31.8002H110.82L105.77 45.6802H126.52L132.69 28.7202H111.94H111.95ZM121.18 40.9902L124.12 42.5902H113.95L117.29 33.4002L114.35 31.8002H124.52L121.18 40.9902Z" fill="white"/>
<path d="M61.75 28.7202H41L38.27 31.8002H39.88L34.83 45.6702H55.58L57.8 39.5702H50.75L49.65 42.5902H43L44.1 39.5702L41.16 37.9602H49.67L50.79 34.8802H45.81L46.35 33.4002L43.41 31.8002H53.58L52.99 33.4002H60.05L61.75 28.7202Z" fill="white"/>
<path d="M109.05 28.7202H88.3L85.57 31.8002H87.17L82.12 45.6802H89.17L91.98 37.9602H105.67L109.04 28.7302L109.05 28.7202ZM93.12 34.8702L93.65 33.4002L90.71 31.8002H100.87L99.75 34.8702H93.11H93.12Z" fill="white"/>
<path d="M83.7 33.4002L85.4 28.7202H64.65L61.92 31.8002H63.53L62.94 33.4002L74.4 39.5702L73.87 41.0202L76.76 42.5902H66.65L67.75 39.5702H60.7L58.48 45.6702H79.23L81.45 39.5702L67.05 31.8002H77.23L76.64 33.4002H83.7Z" fill="white"/>
<path d="M199.37 28.7202H178.62L176.91 33.4002L188.37 39.5702L187.84 41.0202L190.73 42.5902H180.62L181.72 39.5702H174.67L172.44 45.6702H193.2L195.42 39.5702L181.02 31.8002H191.19L190.61 33.4002H197.66L199.37 28.7202Z" fill="white"/>
<path d="M57.84 48.5701L55.67 51.0201H56.95L53.82 59.6101L52.93 62.0601H69.45L74.36 48.5601H57.84V48.5701ZM65.19 58.3401L67.53 59.6201H59.43L62.09 52.3001L59.75 51.0201H67.85L65.19 58.3401Z" fill="white"/>
<path d="M192.15 48.5703H175.63L173.46 51.0203H174.74L170.72 62.0703H176.34L178.58 55.9203H189.48L192.16 48.5703H192.15ZM179.46 53.4703L179.89 52.3003L177.55 51.0203H185.64L184.75 53.4703H179.47H179.46Z" fill="white"/>
<path d="M113.17 48.5703L111 51.0203H112.28L108.26 62.0703H120.73L125.45 60.2303L129.69 48.5703H113.17ZM123.19 51.0203L120.06 59.6103H114.77L117.43 52.2903L115.09 51.0103H123.19V51.0203Z" fill="white"/>
<path d="M153.14 52.3003L154.49 48.5703H137.97L135.8 51.0203H137.08L133.06 62.0703H149.58L151.35 57.2103H145.73L144.86 59.6203H139.57L142.23 52.3003L139.89 51.0203H147.99L147.52 52.3003H153.14Z" fill="white"/>
<path d="M173.32 48.5703H167.71L164.15 58.3403L166.5 59.6203H158.4L162.42 48.5703H156.8L154.63 51.0203H155.91L151.89 62.0703H168.41L173.32 48.5703Z" fill="white"/>
<path d="M103.26 57.2103L102.38 59.6203H97.09L101.11 48.5703H95.5L93.33 51.0203H94.6L90.58 62.0703H107.11L108.87 57.2103H103.26Z" fill="white"/>
<path d="M76.67 48.5703L74.5 51.0203H75.78L71.76 62.0703H77.38L79.62 55.9203H82.1L83.41 62.0603H89.03L87.72 55.9203H90.53L93.21 48.5703H76.69H76.67ZM85.78 53.4703H80.5L80.93 52.3003L78.59 51.0203H86.68L85.79 53.4703H85.78Z" fill="white"/>
<path d="M49.94 48.5703L46.37 58.3803L48.7 59.6603H43.44L47.48 48.5703H41.84L38.25 58.3803L40.59 59.6603H35.33L39.38 48.5703H33.74L31.57 51.0303H32.85L28.81 62.1203H35.1L40.63 59.6503L45.01 62.1203H50.48L55.41 48.5703H49.94Z" fill="white"/>
<path d="M422.49 51.9905C419.02 51.9905 416.2 49.1605 416.2 45.2605C416.2 41.3605 419.02 38.5305 422.49 38.5305C425.96 38.5305 428.78 41.3605 428.78 45.2605C428.78 49.1605 425.96 51.9905 422.49 51.9905ZM422.49 33.4805C415.58 33.4805 409.98 38.7505 409.98 45.2605C409.98 51.7705 415.58 57.0405 422.49 57.0405C429.4 57.0405 435 51.7705 435 45.2605C435 38.7505 429.4 33.4805 422.49 33.4805Z" fill="white"/>
<path d="M257.13 34.1206H250.91V56.4106H257.13V34.1206Z" fill="white"/>
<path d="M304.5 34.1206H283.84V39.1706H291.22V56.4106H297.44V39.1706H304.5V34.1206Z" fill="white"/>
<path d="M377.14 44.3206C376.51 44.5606 375.57 44.5706 375.31 44.5706H371.92V39.1706H375.31C375.57 39.1706 376.51 39.1706 377.14 39.4206C377.94 39.7306 378.75 40.7106 378.75 41.8706C378.75 43.0306 377.94 44.0106 377.14 44.3206ZM380.34 34.8406C378.53 34.1406 375.82 34.1206 375.07 34.1206H365.7V56.4106H371.92V48.9506H375.07C375.82 48.9506 378.52 48.9306 380.34 48.2306C382.64 47.3406 384.97 44.9306 384.97 41.6006C384.97 38.2706 382.64 35.7306 380.34 34.8406Z" fill="white"/>
<path d="M317.73 57.3706C322.35 57.3706 325.94 55.0606 327.46 51.6806C328.18 50.0806 328.4 48.6606 328.4 46.4806V34.1206H322.18V46.4806C322.18 47.8006 321.9 49.5106 321.53 50.0806C320.57 51.6006 319.55 52.3206 317.73 52.3206C315.91 52.3206 314.89 51.6006 313.93 50.0806C313.57 49.5106 313.28 47.8006 313.28 46.4806V34.1206H307.06V46.4806C307.06 48.6706 307.28 50.0806 308 51.6806C309.52 55.0606 313.11 57.3706 317.73 57.3706Z" fill="white"/>
<path d="M348.68 40.3704C346.04 39.1304 344.08 38.5704 341.23 38.5704C338.99 38.5704 337.71 39.4604 337.71 40.4104C337.71 41.6204 338.95 41.7304 340.19 42.0904C344.79 43.4104 347.55 44.4904 349.76 46.2504C350.71 47.0104 351.36 48.3304 351.36 50.1104C351.36 55.0104 346.48 56.9804 341.83 56.9804C337.18 56.9804 332.54 55.5004 330.35 54.1604C331.02 52.7604 332.18 50.7804 332.98 49.5804C335.58 51.1004 338.67 51.9604 341.59 51.9604C344.03 51.9604 345.16 51.4004 345.16 50.2004C345.16 49.0004 344.19 48.4604 343 48.1404C336.42 46.3704 331.52 44.6104 331.52 40.4004C331.52 35.5704 336.65 33.4204 341.64 33.4204C345.35 33.4204 348.92 34.6704 351.24 35.9404C350.6 37.3004 349.56 38.9804 348.68 40.3804" fill="white"/>
<path d="M274.22 44.3204C273.59 44.5704 272.65 44.5704 272.39 44.5704H268.36V39.1704H272.39C272.65 39.1704 273.59 39.1704 274.22 39.4204C275.02 39.7304 275.83 40.7104 275.83 41.8704C275.83 43.0304 275.02 44.0104 274.22 44.3204ZM278.35 47.7804C280.3 46.6604 282.05 44.4804 282.05 41.6104C282.05 38.2804 279.72 35.7404 277.42 34.8504C275.61 34.1504 272.9 34.1304 272.15 34.1304H262.14V56.4204H268.36V48.9604H272.18L277.05 57.2404C279.06 56.6804 280.73 55.9504 282.5 54.9204L278.37 47.7804H278.35Z" fill="white"/>
<path d="M400.04 44.3204C399.41 44.5704 398.47 44.5704 398.21 44.5704H394.18V39.1704H398.21C398.47 39.1704 399.41 39.1704 400.04 39.4204C400.84 39.7304 401.65 40.7104 401.65 41.8704C401.65 43.0304 400.84 44.0104 400.04 44.3204ZM404.18 47.7804C406.13 46.6604 407.88 44.4804 407.88 41.6104C407.88 38.2804 405.55 35.7404 403.25 34.8504C401.44 34.1504 398.73 34.1304 397.98 34.1304H387.97V56.4204H394.19V48.9604H398.01L402.88 57.2404C404.89 56.6804 406.56 55.9504 408.33 54.9204L404.2 47.7804H404.18Z" fill="white"/>
<path d="M242.58 33.5205L236.04 45.8005L229.5 33.5205C227.46 34.0805 225.53 34.8905 223.74 35.9205L236.03 57.1705L248.32 35.9205C246.54 34.8905 244.61 34.0805 242.58 33.5205Z" fill="white"/>
<path d="M361.05 54.5102C361.05 55.9002 359.66 57.0302 357.94 57.0302C356.22 57.0302 354.83 55.9002 354.83 54.5102C354.83 53.1202 356.22 51.9902 357.94 51.9902C359.66 51.9902 361.05 53.1202 361.05 54.5102Z" fill="white"/>
<path d="M609.17 28.7202H588.47H588.42L585.79 31.8002H594.51L589.46 45.6702H596.51L600.98 33.4002L598.03 31.8002H606.45L609.17 28.7202Z" fill="white"/>
<path d="M586.91 28.7202H566.16L563.43 31.8002H565.03L559.98 45.6802H567.03L569.84 37.9602H572.95L574.59 45.6702H581.64L580 37.9602H583.53L586.9 28.7302L586.91 28.7202ZM570.97 34.8702L571.5 33.4002L568.56 31.8002H578.72L577.6 34.8702H570.96H570.97Z" fill="white"/>
<path d="M542.51 28.7202L539.78 31.8002H541.38L536.33 45.6802H557.08L563.25 28.7202H542.5H542.51ZM551.74 40.9902L554.68 42.5902H544.51L547.85 33.4002L544.91 31.8002H555.08L551.74 40.9902Z" fill="white"/>
<path d="M492.31 28.7202H471.56L468.83 31.8002H470.43L465.38 45.6702H486.14L488.36 39.5702H481.31L480.21 42.5902H473.56L474.66 39.5702L471.72 37.9602H480.23L481.35 34.8802H476.37L476.91 33.4002L473.96 31.8002H484.13L483.55 33.4002H490.6L492.31 28.7202Z" fill="white"/>
<path d="M539.61 28.7202H518.86L516.13 31.8002H517.73L512.68 45.6802H519.73L522.54 37.9602H536.23L539.6 28.7302L539.61 28.7202ZM523.67 34.8702L524.2 33.4002L521.26 31.8002H531.42L530.3 34.8702H523.66H523.67Z" fill="white"/>
<path d="M514.25 33.4002L515.96 28.7202H495.21L492.48 31.8002H494.08L493.5 33.4002L504.95 39.5702L504.43 41.0202L507.32 42.5902H497.21L498.31 39.5702H491.26L489.03 45.6702H509.79L512.01 39.5702L497.61 31.8002H507.78L507.2 33.4002H514.25Z" fill="white"/>
<path d="M629.93 28.7202H609.17L607.47 33.4002L618.92 39.5702L618.4 41.0202L621.28 42.5902H611.18L612.28 39.5702H605.22L603 45.6702H623.75L625.98 39.5702L611.58 31.8002H621.75L621.17 33.4002H628.22L629.93 28.7202Z" fill="white"/>
<path d="M488.39 48.5701L486.22 51.0201H487.5L484.37 59.6101L483.48 62.0601H500L504.91 48.5601H488.39V48.5701ZM495.74 58.3401L498.08 59.6201H489.98L492.64 52.3001L490.3 51.0201H498.4L495.74 58.3401Z" fill="white"/>
<path d="M622.71 48.5703H606.19L604.02 51.0203H605.3L601.28 62.0703H606.9L609.14 55.9203H620.04L622.72 48.5703H622.71ZM610.02 53.4703L610.45 52.3003L608.11 51.0203H616.2L615.31 53.4703H610.03H610.02Z" fill="white"/>
<path d="M543.73 48.5703L541.56 51.0203H542.84L538.82 62.0703H551.29L556.01 60.2303L560.25 48.5703H543.73ZM553.74 51.0203L550.61 59.6103H545.32L547.98 52.2903L545.64 51.0103H553.74V51.0203Z" fill="white"/>
<path d="M583.69 52.3003L585.05 48.5703H568.53L566.36 51.0203H567.63L563.61 62.0703H580.14L581.91 57.2103H576.29L575.41 59.6203H570.12L572.79 52.3003L570.44 51.0203H578.54L578.08 52.3003H583.69Z" fill="white"/>
<path d="M603.88 48.5703H598.26L594.71 58.3403L597.05 59.6203H588.95L592.97 48.5703H587.36L585.19 51.0203H586.46L582.44 62.0703H598.97L603.88 48.5703Z" fill="white"/>
<path d="M533.81 57.2103L532.94 59.6203H527.65L531.67 48.5703H526.05L523.88 51.0203H525.16L521.14 62.0703H537.66L539.43 57.2103H533.81Z" fill="white"/>
<path d="M507.22 48.5703L505.05 51.0203H506.33L502.31 62.0703H507.93L510.17 55.9203H512.65L513.96 62.0603H519.58L518.27 55.9203H521.08L523.76 48.5703H507.24H507.22ZM516.34 53.4703H511.06L511.49 52.3003L509.15 51.0203H517.24L516.35 53.4703H516.34Z" fill="white"/>
<path d="M480.5 48.5703L476.92 58.3803L479.26 59.6603H474L478.03 48.5703H472.4L468.8 58.3803L471.15 59.6603H465.89L469.94 48.5703H464.3L462.12 51.0303H463.4L459.37 62.1203H465.66L471.18 59.6503L475.57 62.1203H481.04L485.97 48.5703H480.5Z" fill="white"/>
<path d="M853.05 51.9905C849.58 51.9905 846.76 49.1605 846.76 45.2605C846.76 41.3605 849.58 38.5305 853.05 38.5305C856.52 38.5305 859.34 41.3605 859.34 45.2605C859.34 49.1605 856.52 51.9905 853.05 51.9905ZM853.05 33.4805C846.14 33.4805 840.54 38.7505 840.54 45.2605C840.54 51.7705 846.14 57.0405 853.05 57.0405C859.96 57.0405 865.56 51.7705 865.56 45.2605C865.56 38.7505 859.96 33.4805 853.05 33.4805Z" fill="white"/>
<path d="M687.68 34.1206H681.46V56.4106H687.68V34.1206Z" fill="white"/>
<path d="M735.05 34.1206H714.4V39.1706H721.78V56.4106H728V39.1706H735.05V34.1206Z" fill="white"/>
<path d="M807.69 44.3206C807.06 44.5606 806.12 44.5706 805.86 44.5706H802.47V39.1706H805.86C806.12 39.1706 807.06 39.1706 807.69 39.4206C808.49 39.7306 809.3 40.7106 809.3 41.8706C809.3 43.0306 808.49 44.0106 807.69 44.3206ZM810.89 34.8406C809.08 34.1406 806.37 34.1206 805.62 34.1206H796.25V56.4106H802.47V48.9506H805.62C806.37 48.9506 809.07 48.9306 810.89 48.2306C813.19 47.3406 815.52 44.9306 815.52 41.6006C815.52 38.2706 813.19 35.7306 810.89 34.8406Z" fill="white"/>
<path d="M748.29 57.3706C752.91 57.3706 756.5 55.0606 758.02 51.6806C758.74 50.0806 758.96 48.6606 758.96 46.4806V34.1206H752.74V46.4806C752.74 47.8006 752.46 49.5106 752.09 50.0806C751.13 51.6006 750.11 52.3206 748.29 52.3206C746.47 52.3206 745.45 51.6006 744.49 50.0806C744.13 49.5106 743.84 47.8006 743.84 46.4806V34.1206H737.62V46.4806C737.62 48.6706 737.84 50.0806 738.56 51.6806C740.08 55.0606 743.67 57.3706 748.29 57.3706Z" fill="white"/>
<path d="M779.23 40.3704C776.59 39.1304 774.63 38.5704 771.78 38.5704C769.54 38.5704 768.26 39.4604 768.26 40.4104C768.26 41.6204 769.5 41.7304 770.74 42.0904C775.34 43.4104 778.1 44.4904 780.31 46.2504C781.26 47.0104 781.91 48.3304 781.91 50.1104C781.91 55.0104 777.03 56.9804 772.38 56.9804C767.73 56.9804 763.09 55.5004 760.9 54.1604C761.57 52.7604 762.73 50.7804 763.53 49.5804C766.13 51.1004 769.22 51.9604 772.14 51.9604C774.58 51.9604 775.71 51.4004 775.71 50.2004C775.71 49.0004 774.74 48.4604 773.55 48.1404C766.97 46.3704 762.07 44.6104 762.07 40.4004C762.07 35.5704 767.2 33.4204 772.19 33.4204C775.9 33.4204 779.47 34.6704 781.79 35.9404C781.15 37.3004 780.11 38.9804 779.23 40.3804" fill="white"/>
<path d="M704.78 44.3204C704.15 44.5704 703.21 44.5704 702.95 44.5704H698.92V39.1704H702.95C703.21 39.1704 704.15 39.1704 704.78 39.4204C705.58 39.7304 706.39 40.7104 706.39 41.8704C706.39 43.0304 705.58 44.0104 704.78 44.3204ZM708.91 47.7804C710.86 46.6604 712.61 44.4804 712.61 41.6104C712.61 38.2804 710.28 35.7404 707.98 34.8504C706.17 34.1504 703.46 34.1304 702.71 34.1304H692.7V56.4204H698.92V48.9604H702.74L707.61 57.2404C709.62 56.6804 711.29 55.9504 713.06 54.9204L708.93 47.7804H708.91Z" fill="white"/>
<path d="M830.6 44.3204C829.97 44.5704 829.03 44.5704 828.77 44.5704H824.74V39.1704H828.77C829.03 39.1704 829.97 39.1704 830.6 39.4204C831.4 39.7304 832.21 40.7104 832.21 41.8704C832.21 43.0304 831.4 44.0104 830.6 44.3204ZM834.73 47.7804C836.68 46.6604 838.43 44.4804 838.43 41.6104C838.43 38.2804 836.1 35.7404 833.8 34.8504C831.99 34.1504 829.28 34.1304 828.53 34.1304H818.52V56.4204H824.74V48.9604H828.56L833.43 57.2404C835.44 56.6804 837.11 55.9504 838.88 54.9204L834.75 47.7804H834.73Z" fill="white"/>
<path d="M673.13 33.5205L666.59 45.8005L660.05 33.5205C658.01 34.0805 656.08 34.8905 654.29 35.9205L666.58 57.1705L678.87 35.9205C677.09 34.8905 675.16 34.0805 673.13 33.5205Z" fill="white"/>
<path d="M791.61 54.5102C791.61 55.9002 790.22 57.0302 788.5 57.0302C786.78 57.0302 785.39 55.9002 785.39 54.5102C785.39 53.1202 786.78 51.9902 788.5 51.9902C790.22 51.9902 791.61 53.1202 791.61 54.5102Z" fill="white"/>
<path d="M1039.73 28.7202H1019.03H1018.98L1016.34 31.8002H1025.06L1020.01 45.6702H1027.07L1031.53 33.4002L1028.59 31.8002H1037L1039.73 28.7202Z" fill="white"/>
<path d="M1017.47 28.7202H996.72L993.99 31.8002H995.59L990.54 45.6802H997.59L1000.4 37.9602H1003.51L1005.15 45.6702H1012.2L1010.56 37.9602H1014.09L1017.46 28.7302L1017.47 28.7202ZM1001.53 34.8702L1002.06 33.4002L999.12 31.8002H1009.28L1008.16 34.8702H1001.52H1001.53Z" fill="white"/>
<path d="M973.06 28.7202L970.33 31.8002H971.93L966.88 45.6802H987.63L993.8 28.7202H973.05H973.06ZM982.3 40.9902L985.24 42.5902H975.07L978.41 33.4002L975.47 31.8002H985.64L982.3 40.9902Z" fill="white"/>
<path d="M922.87 28.7202H902.11L899.39 31.8002H900.99L895.94 45.6702H916.69L918.92 39.5702H911.86L910.76 42.5902H904.12L905.22 39.5702L902.27 37.9602H910.78L911.91 34.8802H906.92L907.46 33.4002L904.52 31.8002H914.69L914.11 33.4002H921.16L922.87 28.7202Z" fill="white"/>
<path d="M970.17 28.7202H949.42L946.69 31.8002H948.29L943.24 45.6802H950.29L953.1 37.9602H966.79L970.16 28.7302L970.17 28.7202ZM954.23 34.8702L954.76 33.4002L951.82 31.8002H961.98L960.86 34.8702H954.22H954.23Z" fill="white"/>
<path d="M944.81 33.4002L946.52 28.7202H925.76L923.04 31.8002H924.64L924.06 33.4002L935.51 39.5702L934.98 41.0202L937.87 42.5902H927.77L928.87 39.5702H921.81L919.59 45.6702H940.34L942.57 39.5702L928.17 31.8002H938.34L937.76 33.4002H944.81Z" fill="white"/>
<path d="M1060.48 28.7202H1039.73L1038.02 33.4002L1049.48 39.5702L1048.95 41.0202L1051.84 42.5902H1041.73L1042.83 39.5702H1035.78L1033.56 45.6702H1054.31L1056.53 39.5702L1042.14 31.8002H1052.31L1051.72 33.4002H1058.78L1060.48 28.7202Z" fill="white"/>
<path d="M918.95 48.5701L916.78 51.0201H918.06L914.93 59.6101L914.04 62.0601H930.56L935.47 48.5601H918.95V48.5701ZM926.3 58.3401L928.64 59.6201H920.54L923.2 52.3001L920.86 51.0201H928.96L926.3 58.3401Z" fill="white"/>
<path d="M1053.27 48.5703H1036.75L1034.58 51.0203H1035.86L1031.84 62.0703H1037.46L1039.7 55.9203H1050.6L1053.28 48.5703H1053.27ZM1040.58 53.4703L1041.01 52.3003L1038.67 51.0203H1046.76L1045.87 53.4703H1040.59H1040.58Z" fill="white"/>
<path d="M974.29 48.5703L972.12 51.0203H973.4L969.38 62.0703H981.85L986.57 60.2303L990.81 48.5703H974.29ZM984.3 51.0203L981.17 59.6103H975.88L978.54 52.2903L976.2 51.0103H984.3V51.0203Z" fill="white"/>
<path d="M1014.25 52.3003L1015.61 48.5703H999.08L996.91 51.0203H998.19L994.17 62.0703H1010.69L1012.46 57.2103H1006.85L1005.97 59.6203H1000.68L1003.34 52.3003L1001 51.0203H1009.1L1008.63 52.3003H1014.25Z" fill="white"/>
<path d="M1034.44 48.5703H1028.82L1025.26 58.3403L1027.61 59.6203H1019.51L1023.53 48.5703H1017.91L1015.74 51.0203H1017.02L1013 62.0703H1029.52L1034.44 48.5703Z" fill="white"/>
<path d="M964.37 57.2103L963.5 59.6203H958.2L962.23 48.5703H956.61L954.44 51.0203H955.72L951.7 62.0703H968.22L969.99 57.2103H964.37Z" fill="white"/>
<path d="M937.78 48.5703L935.61 51.0203H936.89L932.87 62.0703H938.49L940.73 55.9203H943.21L944.52 62.0603H950.14L948.83 55.9203H951.64L954.32 48.5703H937.8H937.78ZM946.9 53.4703H941.62L942.05 52.3003L939.71 51.0203H947.8L946.91 53.4703H946.9Z" fill="white"/>
<path d="M911.05 48.5703L907.48 58.3803L909.82 59.6603H904.55L908.59 48.5703H902.96L899.36 58.3803L901.7 59.6603H896.44L900.49 48.5703H894.86L892.68 51.0303H893.96L889.93 62.1203H896.22L901.74 59.6503L906.12 62.1203H911.59L916.52 48.5703H911.05Z" fill="white"/>
<path d="M1283.6 51.9905C1280.13 51.9905 1277.31 49.1605 1277.31 45.2605C1277.31 41.3605 1280.13 38.5305 1283.6 38.5305C1287.07 38.5305 1289.89 41.3605 1289.89 45.2605C1289.89 49.1605 1287.07 51.9905 1283.6 51.9905ZM1283.6 33.4805C1276.69 33.4805 1271.09 38.7505 1271.09 45.2605C1271.09 51.7705 1276.69 57.0405 1283.6 57.0405C1290.51 57.0405 1296.11 51.7705 1296.11 45.2605C1296.11 38.7505 1290.51 33.4805 1283.6 33.4805Z" fill="white"/>
<path d="M1118.24 34.1206H1112.02V56.4106H1118.24V34.1206Z" fill="white"/>
<path d="M1165.61 34.1206H1144.96V39.1706H1152.33V56.4106H1158.55V39.1706H1165.61V34.1206Z" fill="white"/>
<path d="M1238.25 44.3206C1237.62 44.5606 1236.68 44.5706 1236.42 44.5706H1233.03V39.1706H1236.42C1236.68 39.1706 1237.62 39.1706 1238.25 39.4206C1239.05 39.7306 1239.86 40.7106 1239.86 41.8706C1239.86 43.0306 1239.05 44.0106 1238.25 44.3206ZM1241.45 34.8406C1239.64 34.1406 1236.93 34.1206 1236.18 34.1206H1226.81V56.4106H1233.03V48.9506H1236.18C1236.93 48.9506 1239.63 48.9306 1241.45 48.2306C1243.75 47.3406 1246.08 44.9306 1246.08 41.6006C1246.08 38.2706 1243.75 35.7306 1241.45 34.8406Z" fill="white"/>
<path d="M1178.84 57.3706C1183.46 57.3706 1187.05 55.0606 1188.57 51.6806C1189.29 50.0806 1189.51 48.6606 1189.51 46.4806V34.1206H1183.29V46.4806C1183.29 47.8006 1183.01 49.5106 1182.64 50.0806C1181.68 51.6006 1180.66 52.3206 1178.84 52.3206C1177.02 52.3206 1176 51.6006 1175.04 50.0806C1174.68 49.5106 1174.39 47.8006 1174.39 46.4806V34.1206H1168.17V46.4806C1168.17 48.6706 1168.39 50.0806 1169.11 51.6806C1170.63 55.0606 1174.22 57.3706 1178.84 57.3706Z" fill="white"/>
<path d="M1209.79 40.3704C1207.15 39.1304 1205.19 38.5704 1202.34 38.5704C1200.1 38.5704 1198.82 39.4604 1198.82 40.4104C1198.82 41.6204 1200.06 41.7304 1201.3 42.0904C1205.9 43.4104 1208.66 44.4904 1210.87 46.2504C1211.82 47.0104 1212.47 48.3304 1212.47 50.1104C1212.47 55.0104 1207.59 56.9804 1202.94 56.9804C1198.29 56.9804 1193.65 55.5004 1191.46 54.1604C1192.13 52.7604 1193.29 50.7804 1194.09 49.5804C1196.69 51.1004 1199.78 51.9604 1202.7 51.9604C1205.14 51.9604 1206.27 51.4004 1206.27 50.2004C1206.27 49.0004 1205.3 48.4604 1204.11 48.1404C1197.53 46.3704 1192.63 44.6104 1192.63 40.4004C1192.63 35.5704 1197.76 33.4204 1202.75 33.4204C1206.46 33.4204 1210.03 34.6704 1212.35 35.9404C1211.71 37.3004 1210.67 38.9804 1209.79 40.3804" fill="white"/>
<path d="M1135.33 44.3204C1134.7 44.5704 1133.76 44.5704 1133.5 44.5704H1129.47V39.1704H1133.5C1133.76 39.1704 1134.7 39.1704 1135.33 39.4204C1136.13 39.7304 1136.94 40.7104 1136.94 41.8704C1136.94 43.0304 1136.13 44.0104 1135.33 44.3204ZM1139.47 47.7804C1141.42 46.6604 1143.17 44.4804 1143.17 41.6104C1143.17 38.2804 1140.84 35.7404 1138.54 34.8504C1136.73 34.1504 1134.02 34.1304 1133.27 34.1304H1123.26V56.4204H1129.48V48.9604H1133.3L1138.17 57.2404C1140.18 56.6804 1141.85 55.9504 1143.62 54.9204L1139.49 47.7804H1139.47Z" fill="white"/>
<path d="M1261.16 44.3204C1260.53 44.5704 1259.59 44.5704 1259.33 44.5704H1255.3V39.1704H1259.33C1259.59 39.1704 1260.53 39.1704 1261.16 39.4204C1261.96 39.7304 1262.77 40.7104 1262.77 41.8704C1262.77 43.0304 1261.96 44.0104 1261.16 44.3204ZM1265.29 47.7804C1267.24 46.6604 1268.99 44.4804 1268.99 41.6104C1268.99 38.2804 1266.66 35.7404 1264.36 34.8504C1262.55 34.1504 1259.84 34.1304 1259.09 34.1304H1249.08V56.4204H1255.3V48.9604H1259.12L1263.99 57.2404C1266 56.6804 1267.67 55.9504 1269.44 54.9204L1265.31 47.7804H1265.29Z" fill="white"/>
<path d="M1103.69 33.5205L1097.15 45.8005L1090.61 33.5205C1088.57 34.0805 1086.64 34.8905 1084.85 35.9205L1097.14 57.1705L1109.43 35.9205C1107.65 34.8905 1105.72 34.0805 1103.69 33.5205Z" fill="white"/>
<path d="M1222.16 54.5102C1222.16 55.9002 1220.77 57.0302 1219.05 57.0302C1217.33 57.0302 1215.94 55.9002 1215.94 54.5102C1215.94 53.1202 1217.33 51.9902 1219.05 51.9902C1220.77 51.9902 1222.16 53.1202 1222.16 54.5102Z" fill="white"/>
<path d="M1470.29 28.7202H1449.58H1449.53L1446.9 31.8002H1455.62L1450.57 45.6702H1457.62L1462.09 33.4002L1459.15 31.8002H1467.56L1470.29 28.7202Z" fill="white"/>
<path d="M1448.02 28.7202H1427.27L1424.54 31.8002H1426.14L1421.09 45.6802H1428.14L1430.95 37.9602H1434.06L1435.7 45.6702H1442.75L1441.11 37.9602H1444.64L1448.01 28.7302L1448.02 28.7202ZM1432.08 34.8702L1432.61 33.4002L1429.67 31.8002H1439.83L1438.71 34.8702H1432.07H1432.08Z" fill="white"/>
<path d="M1403.62 28.7202L1400.89 31.8002H1402.49L1397.44 45.6802H1418.19L1424.36 28.7202H1403.61H1403.62ZM1412.85 40.9902L1415.79 42.5902H1405.62L1408.96 33.4002L1406.02 31.8002H1416.19L1412.85 40.9902Z" fill="white"/>
<path d="M1353.42 28.7202H1332.67L1329.94 31.8002H1331.55L1326.5 45.6702H1347.25L1349.47 39.5702H1342.42L1341.32 42.5902H1334.67L1335.77 39.5702L1332.83 37.9602H1341.34L1342.46 34.8802H1337.48L1338.02 33.4002L1335.08 31.8002H1345.25L1344.66 33.4002H1351.72L1353.42 28.7202Z" fill="white"/>
<path d="M1400.72 28.7202H1379.97L1377.24 31.8002H1378.84L1373.79 45.6802H1380.84L1383.65 37.9602H1397.34L1400.71 28.7302L1400.72 28.7202ZM1384.79 34.8702L1385.32 33.4002L1382.38 31.8002H1392.54L1391.42 34.8702H1384.78H1384.79Z" fill="white"/>
<path d="M1375.37 33.4002L1377.07 28.7202H1356.32L1353.59 31.8002H1355.2L1354.61 33.4002L1366.07 39.5702L1365.54 41.0202L1368.43 42.5902H1358.32L1359.42 39.5702H1352.37L1350.15 45.6702H1370.9L1373.12 39.5702L1358.72 31.8002H1368.9L1368.31 33.4002H1375.37Z" fill="white"/>
<path d="M1491.04 28.7202H1470.29L1468.58 33.4002L1480.04 39.5702L1479.51 41.0202L1482.4 42.5902H1472.29L1473.39 39.5702H1466.34L1464.11 45.6702H1484.87L1487.09 39.5702L1472.69 31.8002H1482.86L1482.28 33.4002H1489.33L1491.04 28.7202Z" fill="white"/>
<path d="M1349.51 48.5701L1347.34 51.0201H1348.62L1345.49 59.6101L1344.6 62.0601H1361.12L1366.03 48.5601H1349.51V48.5701ZM1356.86 58.3401L1359.2 59.6201H1351.1L1353.76 52.3001L1351.42 51.0201H1359.52L1356.86 58.3401Z" fill="white"/>
<path d="M1483.82 48.5703H1467.3L1465.13 51.0203H1466.41L1462.39 62.0703H1468.01L1470.25 55.9203H1481.15L1483.83 48.5703H1483.82ZM1471.13 53.4703L1471.56 52.3003L1469.22 51.0203H1477.31L1476.42 53.4703H1471.14H1471.13Z" fill="white"/>
<path d="M1404.84 48.5703L1402.67 51.0203H1403.95L1399.93 62.0703H1412.4L1417.12 60.2303L1421.36 48.5703H1404.84ZM1414.86 51.0203L1411.73 59.6103H1406.44L1409.1 52.2903L1406.76 51.0103H1414.86V51.0203Z" fill="white"/>
<path d="M1444.81 52.3003L1446.16 48.5703H1429.64L1427.47 51.0203H1428.75L1424.73 62.0703H1441.25L1443.02 57.2103H1437.4L1436.53 59.6203H1431.24L1433.9 52.3003L1431.56 51.0203H1439.65L1439.19 52.3003H1444.81Z" fill="white"/>
<path d="M1464.99 48.5703H1459.38L1455.82 58.3403L1458.16 59.6203H1450.07L1454.09 48.5703H1448.47L1446.3 51.0203H1447.58L1443.56 62.0703H1460.08L1464.99 48.5703Z" fill="white"/>
<path d="M1394.93 57.2103L1394.05 59.6203H1388.76L1392.78 48.5703H1387.17L1385 51.0203H1386.27L1382.25 62.0703H1398.78L1400.54 57.2103H1394.93Z" fill="white"/>
<path d="M1368.34 48.5703L1366.17 51.0203H1367.45L1363.43 62.0703H1369.05L1371.29 55.9203H1373.77L1375.08 62.0603H1380.7L1379.39 55.9203H1382.2L1384.88 48.5703H1368.36H1368.34ZM1377.45 53.4703H1372.17L1372.6 52.3003L1370.26 51.0203H1378.35L1377.46 53.4703H1377.45Z" fill="white"/>
<path d="M1341.61 48.5703L1338.04 58.3803L1340.37 59.6603H1335.11L1339.15 48.5703H1333.51L1329.92 58.3803L1332.26 59.6603H1327L1331.05 48.5703H1325.41L1323.24 51.0303H1324.52L1320.48 62.1203H1326.77L1332.29 59.6503L1336.68 62.1203H1342.15L1347.08 48.5703H1341.61Z" fill="white"/>
<path d="M1714.16 51.9905C1710.69 51.9905 1707.87 49.1605 1707.87 45.2605C1707.87 41.3605 1710.69 38.5305 1714.16 38.5305C1717.63 38.5305 1720.45 41.3605 1720.45 45.2605C1720.45 49.1605 1717.63 51.9905 1714.16 51.9905ZM1714.16 33.4805C1707.25 33.4805 1701.65 38.7505 1701.65 45.2605C1701.65 51.7705 1707.25 57.0405 1714.16 57.0405C1721.07 57.0405 1726.67 51.7705 1726.67 45.2605C1726.67 38.7505 1721.07 33.4805 1714.16 33.4805Z" fill="white"/>
<path d="M1548.8 34.1206H1542.58V56.4106H1548.8V34.1206Z" fill="white"/>
<path d="M1596.17 34.1206H1575.51V39.1706H1582.89V56.4106H1589.11V39.1706H1596.17V34.1206Z" fill="white"/>
<path d="M1668.81 44.3206C1668.18 44.5606 1667.24 44.5706 1666.98 44.5706H1663.59V39.1706H1666.98C1667.24 39.1706 1668.18 39.1706 1668.81 39.4206C1669.61 39.7306 1670.42 40.7106 1670.42 41.8706C1670.42 43.0306 1669.61 44.0106 1668.81 44.3206ZM1672.01 34.8406C1670.2 34.1406 1667.49 34.1206 1666.74 34.1206H1657.37V56.4106H1663.59V48.9506H1666.74C1667.49 48.9506 1670.19 48.9306 1672.01 48.2306C1674.31 47.3406 1676.64 44.9306 1676.64 41.6006C1676.64 38.2706 1674.31 35.7306 1672.01 34.8406Z" fill="white"/>
<path d="M1609.4 57.3706C1614.02 57.3706 1617.61 55.0606 1619.13 51.6806C1619.85 50.0806 1620.07 48.6606 1620.07 46.4806V34.1206H1613.85V46.4806C1613.85 47.8006 1613.57 49.5106 1613.2 50.0806C1612.24 51.6006 1611.22 52.3206 1609.4 52.3206C1607.58 52.3206 1606.56 51.6006 1605.6 50.0806C1605.24 49.5106 1604.95 47.8006 1604.95 46.4806V34.1206H1598.73V46.4806C1598.73 48.6706 1598.95 50.0806 1599.67 51.6806C1601.19 55.0606 1604.78 57.3706 1609.4 57.3706Z" fill="white"/>
<path d="M1640.35 40.3704C1637.71 39.1304 1635.75 38.5704 1632.9 38.5704C1630.66 38.5704 1629.38 39.4604 1629.38 40.4104C1629.38 41.6204 1630.62 41.7304 1631.86 42.0904C1636.46 43.4104 1639.22 44.4904 1641.43 46.2504C1642.38 47.0104 1643.03 48.3304 1643.03 50.1104C1643.03 55.0104 1638.15 56.9804 1633.5 56.9804C1628.85 56.9804 1624.21 55.5004 1622.02 54.1604C1622.69 52.7604 1623.85 50.7804 1624.65 49.5804C1627.25 51.1004 1630.34 51.9604 1633.26 51.9604C1635.7 51.9604 1636.83 51.4004 1636.83 50.2004C1636.83 49.0004 1635.86 48.4604 1634.67 48.1404C1628.09 46.3704 1623.19 44.6104 1623.19 40.4004C1623.19 35.5704 1628.32 33.4204 1633.31 33.4204C1637.02 33.4204 1640.59 34.6704 1642.91 35.9404C1642.27 37.3004 1641.23 38.9804 1640.35 40.3804" fill="white"/>
<path d="M1565.89 44.3204C1565.26 44.5704 1564.32 44.5704 1564.06 44.5704H1560.03V39.1704H1564.06C1564.32 39.1704 1565.26 39.1704 1565.89 39.4204C1566.69 39.7304 1567.5 40.7104 1567.5 41.8704C1567.5 43.0304 1566.69 44.0104 1565.89 44.3204ZM1570.02 47.7804C1571.97 46.6604 1573.72 44.4804 1573.72 41.6104C1573.72 38.2804 1571.39 35.7404 1569.09 34.8504C1567.28 34.1504 1564.57 34.1304 1563.82 34.1304H1553.81V56.4204H1560.03V48.9604H1563.85L1568.72 57.2404C1570.73 56.6804 1572.4 55.9504 1574.17 54.9204L1570.04 47.7804H1570.02Z" fill="white"/>
<path d="M1691.71 44.3204C1691.08 44.5704 1690.14 44.5704 1689.88 44.5704H1685.85V39.1704H1689.88C1690.14 39.1704 1691.08 39.1704 1691.71 39.4204C1692.51 39.7304 1693.32 40.7104 1693.32 41.8704C1693.32 43.0304 1692.51 44.0104 1691.71 44.3204ZM1695.85 47.7804C1697.8 46.6604 1699.55 44.4804 1699.55 41.6104C1699.55 38.2804 1697.22 35.7404 1694.92 34.8504C1693.11 34.1504 1690.4 34.1304 1689.65 34.1304H1679.64V56.4204H1685.86V48.9604H1689.68L1694.55 57.2404C1696.56 56.6804 1698.23 55.9504 1700 54.9204L1695.87 47.7804H1695.85Z" fill="white"/>
<path d="M1534.24 33.5205L1527.7 45.8005L1521.16 33.5205C1519.12 34.0805 1517.19 34.8905 1515.4 35.9205L1527.69 57.1705L1539.98 35.9205C1538.2 34.8905 1536.27 34.0805 1534.24 33.5205Z" fill="white"/>
<path d="M1652.72 54.5102C1652.72 55.9002 1651.33 57.0302 1649.61 57.0302C1647.89 57.0302 1646.5 55.9002 1646.5 54.5102C1646.5 53.1202 1647.89 51.9902 1649.61 51.9902C1651.33 51.9902 1652.72 53.1202 1652.72 54.5102Z" fill="white"/>
<path d="M1900.84 28.7202H1880.14H1880.09L1877.45 31.8002H1886.18L1881.13 45.6702H1888.18L1892.65 33.4002L1889.7 31.8002H1898.12L1900.84 28.7202Z" fill="white"/>
<path d="M1878.58 28.7202H1857.83L1855.1 31.8002H1856.7L1851.65 45.6802H1858.7L1861.51 37.9602H1864.62L1866.26 45.6702H1873.31L1871.67 37.9602H1875.2L1878.57 28.7302L1878.58 28.7202ZM1862.64 34.8702L1863.17 33.4002L1860.23 31.8002H1870.39L1869.27 34.8702H1862.63H1862.64Z" fill="white"/>
<path d="M1834.18 28.7202L1831.45 31.8002H1833.05L1828 45.6802H1848.75L1854.92 28.7202H1834.17H1834.18ZM1843.41 40.9902L1846.35 42.5902H1836.18L1839.52 33.4002L1836.58 31.8002H1846.75L1843.41 40.9902Z" fill="white"/>
<path d="M1783.98 28.7202H1763.23L1760.5 31.8002H1762.1L1757.05 45.6702H1777.81L1780.03 39.5702H1772.98L1771.87 42.5902H1765.23L1766.33 39.5702L1763.39 37.9602H1771.9L1773.02 34.8802H1768.04L1768.58 33.4002L1765.63 31.8002H1775.8L1775.22 33.4002H1782.27L1783.98 28.7202Z" fill="white"/>
<path d="M1831.28 28.7202H1810.53L1807.8 31.8002H1809.4L1804.35 45.6802H1811.4L1814.21 37.9602H1827.9L1831.27 28.7302L1831.28 28.7202ZM1815.34 34.8702L1815.87 33.4002L1812.93 31.8002H1823.09L1821.97 34.8702H1815.33H1815.34Z" fill="white"/>
<path d="M1805.92 33.4002L1807.63 28.7202H1786.88L1784.15 31.8002H1785.75L1785.17 33.4002L1796.62 39.5702L1796.1 41.0202L1798.99 42.5902H1788.88L1789.98 39.5702H1782.93L1780.7 45.6702H1801.46L1803.68 39.5702L1789.28 31.8002H1799.45L1798.87 33.4002H1805.92Z" fill="white"/>
<path d="M1921.6 28.7202H1900.84L1899.14 33.4002L1910.59 39.5702L1910.06 41.0202L1912.95 42.5902H1902.85L1903.95 39.5702H1896.89L1894.67 45.6702H1915.42L1917.65 39.5702L1903.25 31.8002H1913.42L1912.84 33.4002H1919.89L1921.6 28.7202Z" fill="white"/>
<path d="M1780.06 48.5701L1777.89 51.0201H1779.17L1776.04 59.6101L1775.15 62.0601H1791.67L1796.58 48.5601H1780.06V48.5701ZM1787.41 58.3401L1789.75 59.6201H1781.65L1784.31 52.3001L1781.97 51.0201H1790.07L1787.41 58.3401Z" fill="white"/>
<path d="M1914.38 48.5703H1897.86L1895.69 51.0203H1896.97L1892.95 62.0703H1898.57L1900.81 55.9203H1911.71L1914.39 48.5703H1914.38ZM1901.69 53.4703L1902.12 52.3003L1899.78 51.0203H1907.87L1906.98 53.4703H1901.7H1901.69Z" fill="white"/>
<path d="M1835.4 48.5703L1833.23 51.0203H1834.51L1830.49 62.0703H1842.96L1847.68 60.2303L1851.92 48.5703H1835.4ZM1845.41 51.0203L1842.28 59.6103H1836.99L1839.65 52.2903L1837.31 51.0103H1845.41V51.0203Z" fill="white"/>
<path d="M1875.36 52.3003L1876.72 48.5703H1860.2L1858.03 51.0203H1859.3L1855.28 62.0703H1871.81L1873.58 57.2103H1867.96L1867.08 59.6203H1861.79L1864.46 52.3003L1862.11 51.0203H1870.21L1869.75 52.3003H1875.36Z" fill="white"/>
<path d="M1895.55 48.5703H1889.93L1886.38 58.3403L1888.72 59.6203H1880.62L1884.64 48.5703H1879.03L1876.86 51.0203H1878.13L1874.11 62.0703H1890.64L1895.55 48.5703Z" fill="white"/>
<path d="M1825.48 57.2103L1824.61 59.6203H1819.32L1823.34 48.5703H1817.72L1815.55 51.0203H1816.83L1812.81 62.0703H1829.33L1831.1 57.2103H1825.48Z" fill="white"/>
<path d="M1798.89 48.5703L1796.72 51.0203H1798L1793.98 62.0703H1799.6L1801.84 55.9203H1804.32L1805.63 62.0603H1811.25L1809.94 55.9203H1812.75L1815.43 48.5703H1798.91H1798.89ZM1808.01 53.4703H1802.73L1803.16 52.3003L1800.82 51.0203H1808.91L1808.02 53.4703H1808.01Z" fill="white"/>
<path d="M1772.17 48.5703L1768.59 58.3803L1770.93 59.6603H1765.67L1769.7 48.5703H1764.07L1760.47 58.3803L1762.82 59.6603H1757.56L1761.61 48.5703H1755.97L1753.79 51.0303H1755.07L1751.04 62.1203H1757.33L1762.85 59.6503L1767.24 62.1203H1772.71L1777.64 48.5703H1772.17Z" fill="white"/>
<path d="M2144.72 51.9905C2141.25 51.9905 2138.43 49.1605 2138.43 45.2605C2138.43 41.3605 2141.25 38.5305 2144.72 38.5305C2148.19 38.5305 2151.01 41.3605 2151.01 45.2605C2151.01 49.1605 2148.19 51.9905 2144.72 51.9905ZM2144.72 33.4805C2137.81 33.4805 2132.21 38.7505 2132.21 45.2605C2132.21 51.7705 2137.81 57.0405 2144.72 57.0405C2151.63 57.0405 2157.23 51.7705 2157.23 45.2605C2157.23 38.7505 2151.63 33.4805 2144.72 33.4805Z" fill="white"/>
<path d="M1979.35 34.1206H1973.13V56.4106H1979.35V34.1206Z" fill="white"/>
<path d="M2026.72 34.1206H2006.07V39.1706H2013.45V56.4106H2019.67V39.1706H2026.72V34.1206Z" fill="white"/>
<path d="M2099.36 44.3206C2098.73 44.5606 2097.79 44.5706 2097.53 44.5706H2094.14V39.1706H2097.53C2097.79 39.1706 2098.73 39.1706 2099.36 39.4206C2100.16 39.7306 2100.97 40.7106 2100.97 41.8706C2100.97 43.0306 2100.16 44.0106 2099.36 44.3206ZM2102.56 34.8406C2100.75 34.1406 2098.04 34.1206 2097.29 34.1206H2087.92V56.4106H2094.14V48.9506H2097.29C2098.04 48.9506 2100.74 48.9306 2102.56 48.2306C2104.86 47.3406 2107.19 44.9306 2107.19 41.6006C2107.19 38.2706 2104.86 35.7306 2102.56 34.8406Z" fill="white"/>
<path d="M2039.96 57.3706C2044.58 57.3706 2048.17 55.0606 2049.69 51.6806C2050.41 50.0806 2050.63 48.6606 2050.63 46.4806V34.1206H2044.41V46.4806C2044.41 47.8006 2044.13 49.5106 2043.76 50.0806C2042.8 51.6006 2041.78 52.3206 2039.96 52.3206C2038.14 52.3206 2037.12 51.6006 2036.16 50.0806C2035.8 49.5106 2035.51 47.8006 2035.51 46.4806V34.1206H2029.29V46.4806C2029.29 48.6706 2029.51 50.0806 2030.23 51.6806C2031.75 55.0606 2035.34 57.3706 2039.96 57.3706Z" fill="white"/>
<path d="M2070.9 40.3704C2068.26 39.1304 2066.3 38.5704 2063.45 38.5704C2061.21 38.5704 2059.93 39.4604 2059.93 40.4104C2059.93 41.6204 2061.17 41.7304 2062.41 42.0904C2067.01 43.4104 2069.77 44.4904 2071.98 46.2504C2072.93 47.0104 2073.58 48.3304 2073.58 50.1104C2073.58 55.0104 2068.7 56.9804 2064.05 56.9804C2059.4 56.9804 2054.76 55.5004 2052.57 54.1604C2053.24 52.7604 2054.4 50.7804 2055.2 49.5804C2057.8 51.1004 2060.89 51.9604 2063.81 51.9604C2066.25 51.9604 2067.38 51.4004 2067.38 50.2004C2067.38 49.0004 2066.41 48.4604 2065.22 48.1404C2058.64 46.3704 2053.74 44.6104 2053.74 40.4004C2053.74 35.5704 2058.87 33.4204 2063.86 33.4204C2067.57 33.4204 2071.14 34.6704 2073.46 35.9404C2072.82 37.3004 2071.78 38.9804 2070.9 40.3804" fill="white"/>
<path d="M1996.45 44.3204C1995.82 44.5704 1994.88 44.5704 1994.62 44.5704H1990.59V39.1704H1994.62C1994.88 39.1704 1995.82 39.1704 1996.45 39.4204C1997.25 39.7304 1998.06 40.7104 1998.06 41.8704C1998.06 43.0304 1997.25 44.0104 1996.45 44.3204ZM2000.58 47.7804C2002.53 46.6604 2004.28 44.4804 2004.28 41.6104C2004.28 38.2804 2001.95 35.7404 1999.65 34.8504C1997.84 34.1504 1995.13 34.1304 1994.38 34.1304H1984.37V56.4204H1990.59V48.9604H1994.41L1999.28 57.2404C2001.29 56.6804 2002.96 55.9504 2004.73 54.9204L2000.6 47.7804H2000.58Z" fill="white"/>
<path d="M2122.27 44.3204C2121.64 44.5704 2120.7 44.5704 2120.44 44.5704H2116.41V39.1704H2120.44C2120.7 39.1704 2121.64 39.1704 2122.27 39.4204C2123.07 39.7304 2123.88 40.7104 2123.88 41.8704C2123.88 43.0304 2123.07 44.0104 2122.27 44.3204ZM2126.4 47.7804C2128.35 46.6604 2130.1 44.4804 2130.1 41.6104C2130.1 38.2804 2127.77 35.7404 2125.47 34.8504C2123.66 34.1504 2120.95 34.1304 2120.2 34.1304H2110.19V56.4204H2116.41V48.9604H2120.23L2125.1 57.2404C2127.11 56.6804 2128.78 55.9504 2130.55 54.9204L2126.42 47.7804H2126.4Z" fill="white"/>
<path d="M1964.8 33.5205L1958.26 45.8005L1951.72 33.5205C1949.68 34.0805 1947.75 34.8905 1945.96 35.9205L1958.25 57.1705L1970.54 35.9205C1968.76 34.8905 1966.83 34.0805 1964.8 33.5205Z" fill="white"/>
<path d="M2083.28 54.5102C2083.28 55.9002 2081.89 57.0302 2080.17 57.0302C2078.45 57.0302 2077.06 55.9002 2077.06 54.5102C2077.06 53.1202 2078.45 51.9902 2080.17 51.9902C2081.89 51.9902 2083.28 53.1202 2083.28 54.5102Z" fill="white"/>
</g>
<defs>
<clipPath id="clip0_1176_4574">
<rect width="2186.04" height="90.78" fill="white"/>
</clipPath>
</defs>
</svg>
