<svg width="525" height="114" viewBox="0 0 525 114" fill="none" xmlns="http://www.w3.org/2000/svg">
<g clip-path="url(#clip0_1176_4573)">
<path d="M116 13.227C105.821 7.15167 95.1581 2.64226 83.9254 0V0.00941423L76.9958 13.0826C76.3508 12.9728 75.712 12.8755 75.0858 12.7845C74.8957 12.3766 74.6745 12.0188 74.4159 11.7019C71.3312 7.93306 62.1581 8.12762 58.7805 9.81904C57.7024 10.3588 56.5589 11.2908 55.3749 12.5931C50.2961 13.2803 45.4073 14.5701 40.7958 16.4435L32.0777 0C20.8419 2.64226 10.1795 7.15167 0 13.227L14.227 37.9456C13.0367 39.3138 11.0613 42.4676 9.95203 44.6454C10.5565 45.7814 11.7031 46.9425 12.8747 47.7019C8.86459 53.0146 3.40874 62.9592 0.688603 69.7437C13.2486 83.4352 22.8392 90.3483 40.0169 82.7511L58.0016 114L115.997 13.2458L116.003 13.227H116Z" fill="white"/>
<path d="M12.9962 44.4129C13.6007 45.1473 14.7941 46.1954 16.5171 46.9548C11.9649 52.9077 6.80503 61.9548 3.65179 69.188C17.536 83.2843 24.4594 87.2414 41.0576 79.55L58.0047 108.991L112.588 14.1588C104.116 9.23826 94.9213 5.4255 85.2061 2.92445L78.345 15.8659C76.6219 15.5427 74.9019 15.2696 73.1913 15.0594C73.0449 14.3094 72.8143 13.6943 72.4872 13.2927C70.3964 10.7351 62.694 10.6598 59.896 12.0625C58.8865 12.5678 57.7398 13.6284 56.6275 14.959C50.7385 15.6619 45.0459 17.209 39.6679 19.6535L30.794 2.91504C21.0756 5.41608 11.8808 9.22257 3.40564 14.1431L17.1995 38.1086C15.7288 40.0761 14.3267 42.1786 12.9931 44.4161" fill="#101820"/>
<path d="M34.6016 41.4005C35.3089 42.1851 42.2198 43.6568 41.93 38.1777C39.1632 38.3911 36.468 39.706 34.6016 41.4005Z" fill="#FE5000"/>
<path d="M47.0151 64.9172L47.7349 60.7278L52.527 60.9381L51.0875 55.3335C42.3787 60.5207 40.4282 70.437 38.5898 74.3188C42.9022 70.437 49.7976 66.1661 59.0672 64.6096C58.3786 61.5061 56.7459 58.2676 55.0665 56.1274L55.5432 63.3889L49.6573 63.5333L48.4297 66.1347L44.8278 66.4642L42.8118 69.3544L43.9709 65.5824L47.0058 64.9172H47.0151Z" fill="white"/>
<path d="M28.2763 20.9308C28.7842 19.6473 30.797 17.5636 34.3179 16.6818L29.102 6.84082C21.7829 8.92136 14.7037 11.7958 7.99524 15.4109L19.2715 35.0019C21.5336 32.4758 24.3753 29.6986 27.8245 27.0249C27.5098 24.9067 27.5566 22.7666 28.2825 20.9339M81.6664 16.732L86.9042 6.85023C94.2233 8.93392 101.299 11.8084 108.008 15.4266L101.583 26.5919C98.3798 24.5458 93.8026 22.6128 89.7925 21.2603L90.8364 19.4465C88.3374 18.4768 85.2216 17.5448 81.6664 16.732Z" fill="#FE5000"/>
<path d="M61.3324 25.5187C59.572 25.1139 57.8022 24.8221 56.076 24.6432C58.12 20.7269 63.3796 17.2687 66.0374 18.0595C64.6103 18.8566 62.021 21.9445 61.3324 25.5187ZM84.8633 23.2625L85.9258 21.4173C81.5138 20.0428 77.323 19.1108 73.3503 18.5585C73.1976 21.0062 72.6087 23.7959 71.702 26.0114C74.472 27.9508 77.4507 31.7667 78.0988 35.1715C75.7993 31.7227 71.7238 29.0742 67.0812 27.2729C68.8697 23.8775 70.3809 17.5229 69.2155 15.8378C68.2122 14.3849 63.5603 14.1903 61.0894 15.2164C58.4409 16.3179 54.92 20.3127 51.6795 24.3702C51.9537 22.8012 52.8168 20.7834 53.951 18.8221C32.6448 22.6882 20.7765 37.729 17.0126 43.252C17.7448 43.6913 18.5954 44.0083 19.5364 44.1997C20.2094 41.7865 24.394 38.184 26.2916 36.9131C24.6838 38.8273 22.9483 42.7374 23.2599 44.3472C30.5073 44.2782 34.7449 34.9581 46.2829 35.8964L44.214 37.2803C44.6689 39.4424 44.1392 43.4968 38.9388 44.2907C40.397 44.6924 41.6403 45.3231 42.5532 46.2583C31.5854 43.8608 26.653 48.728 19.8542 47.683C14.7131 54.8597 11.2264 60.6087 7.48743 68.2374C10.516 66.6118 17.5703 66.2635 21.4371 67.7164L21.6334 71.2782C17.9162 72.3137 17.3491 77.0648 23.1041 79.1673C26.8711 80.5418 33.9722 80.6579 36.6611 72.3482C39.0822 64.8733 43.8712 53.2468 56.4499 48.9821L54.9605 51.7844C58.6092 55.0386 62.0491 61.4623 62.8436 67.4309C53.4961 67.6192 45.0023 71.479 38.5961 77.9058C45.1425 74.1181 51.4957 72.2164 59.706 72.0031C70.0849 71.73 72.8206 65.3566 69.8075 56.73C73.7024 59.7426 74.8428 65.8775 72.2753 70.2959C70.2687 73.751 65.9782 75.389 60.407 75.2604C54.0569 75.1129 48.4702 76.1453 44.619 77.7143L51.3337 89.3786L53.5148 85.5909L60.5659 97.8545L99.9191 29.4853C96.1863 27.0658 89.7272 24.5303 84.8696 23.2593" fill="white"/>
</g>
<path d="M485.211 25H445.422L440.371 30.904H457.093L447.41 57.4907H460.935L469.498 33.9787L463.854 30.904H479.984L485.211 25Z" fill="black"/>
<path d="M442.527 25H402.738L397.511 30.904H400.587L390.904 57.4907H404.43L409.819 42.6933H415.78L418.934 57.464H432.46L429.306 42.6933H436.067L442.527 25ZM411.967 36.7893L412.992 33.9787L407.349 30.904H426.835L424.692 36.7893H411.967Z" fill="black"/>
<path d="M357.394 25L352.166 30.904H355.243L345.56 57.4907H385.349L397.185 25H357.394ZM375.097 48.512L380.741 51.5867H361.239L367.65 33.9787L362.007 30.904H381.509L375.097 48.512Z" fill="black"/>
<path d="M261.155 25H221.363L216.139 30.904H219.215L209.532 57.4907H249.321L253.58 45.7947H240.054L237.946 51.5867H225.206L227.316 45.7947L221.673 42.7227H237.989L240.14 36.8187H230.585L231.62 33.9787L225.977 30.904H245.479L244.358 33.9787H257.884L261.155 25Z" fill="black"/>
<path d="M351.841 25H312.052L306.825 30.904H309.901L300.218 57.4907H313.744L319.133 42.6933H345.381L351.841 25ZM321.284 36.7893L322.309 33.9787L316.665 30.904H336.152L334.009 36.7893H321.284Z" fill="black"/>
<path d="M303.225 33.9787L306.497 25H266.708L261.48 30.904H264.557L263.436 33.9787L285.399 45.7947L284.387 48.568L289.927 51.5867H270.55L272.658 45.7947H259.132L254.874 57.4907H294.663L298.924 45.7947L271.318 30.904H290.821L289.703 33.9787H303.225Z" fill="black"/>
<path d="M525 25H485.211L481.942 33.9787L503.902 45.7947L502.894 48.568L508.433 51.5867H489.053L491.164 45.7947H477.638L473.377 57.4907H513.169L517.427 45.7947L489.824 30.904H509.327L508.206 33.9787H521.731L525 25Z" fill="black"/>
<path d="M253.644 63.04L249.481 67.7413H251.931L244.22 88.912H275.9L285.321 63.0427H253.641L253.644 63.04ZM267.738 81.7627L272.231 84.2107H256.702L261.809 70.1893L257.315 67.7413H272.845L267.738 81.7627Z" fill="black"/>
<path d="M511.168 63.04H479.488L475.325 67.7413H477.775L470.066 88.9093H480.835L485.126 77.128H506.023L511.168 63.04ZM486.836 72.4267L487.652 70.1893L483.159 67.7413H498.675L496.967 72.4267H486.836Z" fill="black"/>
<path d="M359.739 63.04L355.576 67.7413H358.026L350.317 88.9093H374.236L383.284 85.3813L391.419 63.04H359.739ZM378.94 67.7413L372.941 84.208H362.797L367.904 70.1867L363.41 67.7387H378.937L378.94 67.7413Z" fill="black"/>
<path d="M436.361 70.1893L438.965 63.04H407.282L403.122 67.7413H405.572L397.86 88.912H429.543L432.935 79.5973H422.165L420.484 84.2107H410.342L415.447 70.1893L410.956 67.7413H426.483L425.591 70.1893H436.361Z" fill="black"/>
<path d="M475.066 63.04H464.297L457.477 81.7627L461.97 84.2107H446.444L454.152 63.04H443.383L439.224 67.7413H441.673L433.962 88.912H465.645L475.066 63.04Z" fill="black"/>
<path d="M340.73 79.5973L339.049 84.2107H328.907L336.616 63.04H325.847L321.687 67.7413H324.136L316.425 88.912H348.108L351.499 79.5973H340.73Z" fill="black"/>
<path d="M289.745 63.04L285.583 67.7413H288.032L280.324 88.9093H291.093L295.383 77.128H300.13L302.641 88.888H313.41L310.899 77.128H316.284L321.428 63.04H289.745ZM307.228 72.4267H297.096L297.913 70.1893L293.419 67.7413H308.933L307.225 72.4267H307.228Z" fill="black"/>
<path d="M238.504 63.04L231.655 81.848L236.135 84.288H226.046L233.784 63.04H222.98L216.088 81.84L220.581 84.288H210.493L218.26 63.04H207.454L203.278 67.7573H205.735L198 89H210.063L220.645 84.2827L229.05 89H239.539L248.993 63.04H238.504Z" fill="black"/>
<path d="M172 0H177L137 114H132L172 0Z" fill="black"/>
<defs>
<clipPath id="clip0_1176_4573">
<rect width="116" height="114" fill="white"/>
</clipPath>
</defs>
</svg>
